<svg width="16" height="14" viewBox="0 0 16 14" fill="none" xmlns="http://www.w3.org/2000/svg">
<path d="M14 5.5H5.20696L7.64596 3.061C7.92735 2.77974 8.08549 2.39822 8.08558 2.00036C8.08568 1.6025 7.92772 1.2209 7.64646 0.939505C7.3652 0.65811 6.98367 0.499972 6.58581 0.499878C6.18795 0.499784 5.80635 0.657743 5.52496 0.939005L1.93896 4.525C1.28373 5.18204 0.915771 6.07209 0.915771 7C0.915771 7.92792 1.28373 8.81797 1.93896 9.47501L5.52496 13.061C5.80635 13.3423 6.18795 13.5002 6.58581 13.5001C6.98367 13.5 7.3652 13.3419 7.64646 13.0605C7.92772 12.7791 8.08568 12.3975 8.08558 11.9997C8.08549 11.6018 7.92735 11.2203 7.64596 10.939L5.20696 8.5H14C14.3978 8.5 14.7793 8.34197 15.0606 8.06067C15.3419 7.77936 15.5 7.39783 15.5 7C15.5 6.60218 15.3419 6.22065 15.0606 5.93934C14.7793 5.65804 14.3978 5.5 14 5.5Z" fill="black"/>
</svg>
