<svg width="100" height="100" viewBox="0 0 100 100" fill="none" xmlns="http://www.w3.org/2000/svg">
<path d="M79.1667 12.5H20.8333C16.231 12.5 12.5 16.231 12.5 20.8333V79.1667C12.5 83.769 16.231 87.5 20.8333 87.5H79.1667C83.769 87.5 87.5 83.769 87.5 79.1667V20.8333C87.5 16.231 83.769 12.5 79.1667 12.5Z" stroke="#999EAD" stroke-width="2" stroke-linecap="round" stroke-linejoin="round"/>
<path d="M35.4167 41.6666C38.8685 41.6666 41.6667 38.8684 41.6667 35.4166C41.6667 31.9648 38.8685 29.1666 35.4167 29.1666C31.965 29.1666 29.1667 31.9648 29.1667 35.4166C29.1667 38.8684 31.965 41.6666 35.4167 41.6666Z" stroke="#999EAD" stroke-width="2" stroke-linecap="round" stroke-linejoin="round"/>
<path d="M87.4999 62.5L66.6666 41.6666L20.8333 87.5" stroke="#999EAD" stroke-width="2" stroke-linecap="round" stroke-linejoin="round"/>
</svg>
